<!-- icon666.com - MILLIONS vector ICONS FREE --><svg id="Layer_6" viewBox="0 0 32 32" xmlns="http://www.w3.org/2000/svg" data-name="Layer 6"><path d="m1.07 26.62h-.24a1.07 1.07 0 0 1 -.83-1 16.56 16.56 0 0 1 16.54-16.62h1v-1.45a2.17 2.17 0 0 1 3.26-1.88l10.09 5.83a2.17 2.17 0 0 1 0 3.76l-10.07 5.83a2.16 2.16 0 0 1 -3.25-1.87v-1.4a1.07 1.07 0 1 1 2.13 0v1.4l10.15-5.8-10.1-5.9-.05 1.48a2.17 2.17 0 0 1 -2.18 2.17h-1a14.46 14.46 0 0 0 -13.78 10.22 20 20 0 0 1 11.49-5.57 1.07 1.07 0 1 1 .27 2.12c-5.4.69-10.5 4.06-12.5 8.06a1.07 1.07 0 0 1 -.93.62z"></path></svg>